<mxfile host="app.diagrams.net" modified="2023-04-16T10:11:36.417Z" agent="Mozilla/5.0 (Windows NT 10.0; Win64; x64) AppleWebKit/537.36 (KHTML, like Gecko) Chrome/110.0.0.0 YaBrowser/23.3.1.895 Yowser/2.5 Safari/537.36" version="21.1.8" etag="Z-rMcrJLGotSyzMytC84" type="github">
  <diagram name="Страница 1" id="SvhHRcjR91qWoZvEfUXr">
    <mxGraphModel>
      <root>
        <mxCell id="0" />
        <mxCell id="1" parent="0" />
      </root>
    </mxGraphModel>
  </diagram>
</mxfile>
